<?xml version="1.0" encoding="UTF-8"?><svg viewBox="-5 0 388.32 388.33" xmlns="http://www.w3.org/2000/svg"><path transform="rotate(89.855 188.95 194.17)" d="m188.95 13.727c-99.614 0-180.46 80.808-180.46 180.42 0 99.614 80.851 180.46 180.46 180.46 99.614 0 180.46-80.851 180.46-180.46 0-99.614-80.851-180.42-180.46-180.42zm0 93.792c47.823 0 86.63 38.808 86.63 86.63s-38.807 86.672-86.63 86.672c-47.822 0-86.629-38.85-86.629-86.672s38.807-86.63 86.629-86.63z" fill="#FFF" stroke-opacity="0"/><path transform="rotate(89.855 184.72 194.17)" d="m222.29 262.04c-2.513-0.98657-5.3102-0.96268-7.806 0.066559-2.2402 0.91876-4.517 1.7171-6.7993 2.4164-2.3754 0.72788-4.807 1.3412-7.2695 1.8444-2.4566 0.50198-4.8956 0.8671-7.3984 1.1311-2.4956 0.26328-5.0556 0.42206-7.5841 0.44134-2.5328 0.019379-5.0164-0.070557-7.5588-0.30243-2.5788-0.23523-5.1597-0.61475-7.6543-1.0963-2.5157-0.4856-5.0197-1.0981-7.5721-1.8636-2.5702-0.77087-5.1318-1.6542-7.5704-2.6643-5.3335-2.2086-11.448 0.32394-13.657 5.657l-36.634 88.443c-2.2086 5.3335 0.32398 11.448 5.657 13.657 4.1129 1.7037 8.0288 2.9214 11.58 4.1368 1.5161 0.5191 3.564 1.3871 6.2092 2.1948 3.867 1.1794 7.4465 1.9775 10.643 2.7585 2.1719 0.53033 4.8215 1.3042 7.9676 1.9331 3.7563 0.75189 7.154 1.1272 10.148 1.5634 2.5089 0.36322 5.4412 0.90347 8.7769 1.2313 3.281 0.32617 6.2186 0.38989 8.7855 0.52771 3.1493 0.16455 6.6535 0.43475 10.477 0.427 2.9558-0.002319 5.359-0.26697 7.2593-0.34021 0.013428 0.005615 0.026825 0.011139 0.040253 0.016724 3.6304-0.14514 7.5768-0.23328 11.825-0.66467 2.9858-0.2998 5.3888-0.78241 7.2679-1.0437 3.3456-0.46875 7.093-0.90356 11.126-1.7085 3.4038-0.67807 6.3605-1.5306 8.9641-2.1796 2.864-0.71448 6.1445-1.4016 9.7039-2.4861 2.4601-0.7497 4.319-1.5594 5.6945-2.0254 3.8075-1.2901 7.8964-2.6041 12.129-4.3573 2.5687-1.059 4.627-3.0901 5.6903-5.657 1.0633-2.567 1.044-5.4586-0.023468-8.0238l-36.582-88.317c-1.0891-2.618-3.195-4.6813-5.8347-5.7167zm36.756-251.03c-49.451-20.483-102.69-18.925-148.57 0.072951-5.3212 2.2123-7.8485 8.3136-5.6502 13.641l36.33 87.788c1.0666 2.5656 3.1037 4.5943 5.6738 5.65 2.57 1.0557 5.4617 1.0515 8.0238-0.023468 0.16199-0.06778 0.1102-0.078064 0.24429-0.13455 0.59695-0.24719 0.71439-0.30066 0.85358-0.35355 0.050369-0.022552 0.3159-0.095917 0.32475-0.10117 1.9037-0.74213 3.8686-1.4202 5.8888-2.0392 2.4355-0.74628 4.8207-1.3689 7.2293-1.8611 2.4024-0.49097 4.9058-0.88571 7.4553-1.1547 2.4958-0.26328 4.9988-0.39844 7.5271-0.41776 2.5329-0.019409 5.0567 0.08725 7.599 0.31912 2.6074 0.23782 5.155 0.56146 7.6307 1.0394 2.4968 0.48193 5.0507 1.112 7.6124 1.8803 2.5792 0.77356 5.0748 1.6778 7.5135 2.6879 5.3335 2.2086 11.448-0.32398 13.657-5.657l36.318-87.678c2.2086-5.3335-0.32398-11.448-5.657-13.657zm99.252 99.426c-2.5323-1.019-5.3627-1.007-7.8864 0.033264l-87.748 36.346c-5.3212 2.2123-7.8485 8.3136-5.6502 13.641 0.91873 2.2403 1.717 4.517 2.4164 6.7993 0.74628 2.4355 1.3689 4.8207 1.8612 7.2293 0.49094 2.4024 0.84546 4.8892 1.1144 7.4386 0.26328 2.4958 0.43869 5.0154 0.45804 7.5438 0.019379 2.5329-0.08725 5.0567-0.31912 7.5991-0.23782 2.6073-0.56146 5.1549-1.0394 7.6307-0.48196 2.4968-1.1522 5.0341-1.9206 7.5957-0.68662 2.2893-1.4991 4.5934-2.4379 6.91-0.10031 0.22528-0.18686 0.34576-0.44025 0.94904-1.0742 2.5638-1.0752 5.4368-0.016754 8.0071s3.089 4.6263 5.6571 5.6903l88.121 36.501c5.3335 2.2086 11.448-0.32398 13.657-5.657 2.4452-5.9032 4.5178-11.85 6.3316-17.79 1.1551-3.7876 1.9134-7.2499 2.6653-10.304 0.58508-2.3789 1.3643-5.1624 2.0027-8.363 0.71728-3.5879 1.1084-6.8519 1.5342-9.7357 0.38849-2.6501 0.9162-5.6539 1.2508-9.0517 0.35553-3.5681 0.42877-6.8517 0.57251-9.804 0.005554-0.013428 0.011108-0.026825 0.016663-0.040253 0.12665-2.6902 0.38238-5.754 0.3794-9.224 0.002197-3.2787-0.21143-6.1531-0.32306-8.6664-0.14654-3.1922-0.26929-6.7209-0.64844-10.498-0.29755-2.9931-0.75232-5.5951-1.0616-7.7938-0.47876-3.3796-0.94592-7.0839-1.7418-11.046-0.5954-2.9717-1.2974-5.372-1.7709-7.3334-0.81903-3.3881-1.6519-7.1269-2.8575-11.083-0.7497-2.4606-1.5594-4.3192-2.0254-5.6946-1.2901-3.8075-2.6041-7.8964-4.3572-12.129-1.0835-2.6038-3.1732-4.6594-5.7945-5.7001zm-339.28-0.0038c-5.3334-2.2086-11.448 0.32398-13.657 5.657-20.484 49.454-18.996 102.7 0.016052 148.6 1.059 2.5687 3.0901 4.627 5.6571 5.6903 2.567 1.0632 5.4586 1.044 8.0238-0.023499l88.317-36.582c2.5656-1.0666 4.5943-3.1037 5.65-5.6738s1.0515-5.4617-0.023499-8.0238c-0.019012-0.045502-0.05011-0.12094-0.094269-0.22763-0.9353-2.2579-1.7475-4.6308-2.494-7.0671-0.74631-2.4357-1.3689-4.8208-1.8611-7.2293-0.50732-2.4824-0.89478-4.9915-1.1547-7.4553-0.25421-2.4101-0.38107-4.9494-0.40109-7.5674-0.020081-2.6225 0.038696-5.1248 0.26221-7.5755 0.2294-2.5155 0.60068-5.0869 1.0963-7.6543 0.48193-2.4967 1.1356-4.9937 1.9039-7.5554 0.70703-2.3573 1.573-4.7883 2.5546-7.1916 2.1799-5.3269-0.35629-11.414-5.6736-13.617l-88.121-36.501z" fill="#A00" stroke-linejoin="round" stroke-width="15"/><path transform="rotate(89.855 -5.3552 200.81)" d="m-11.501 201.08v0.042389c4.1509 0 8.2045-0.37863 12.291-0.63571-4.0973 0.25836-8.187 0.59332-12.291 0.59332z"/><path transform="rotate(89.855 194.16 .32049)" d="m193.89 6.466c0-4.104 0.33499-8.1936 0.59337-12.291-0.25708 4.0864-0.63574 8.14-0.63574 12.291h0.042374z"/></svg>